<svg width="800" height="400" viewBox="0 0 800 400" xmlns="http://www.w3.org/2000/svg"><mask id="satori_om-id"><rect x="0" y="0" width="800" height="400" fill="#fff"/></mask><rect x="0" y="0" width="800" height="400" fill="#000"/><mask id="satori_om-id-0"><rect x="0" y="108" width="800" height="184" fill="#fff"/></mask><rect x="0" y="108" width="800" height="184" fill="#000"/><mask id="satori_om-id-0-0"><rect x="0" y="108" width="800" height="184" fill="#fff"/></mask><mask id="satori_om-id-0-0-0"><rect x="32" y="160" width="676" height="80" fill="#fff"/></mask><mask id="satori_om-id-0-0-0-0"><rect x="32" y="160" width="676" height="40" fill="#fff"/></mask><path fill="#00AAAA" d="M39.8 192.1L34.3 192.1L34.3 165.9L44.6 165.9Q47.6 165.9 49.7 167.0Q51.8 168.0 52.9 169.9Q54.0 171.9 54.0 174.5L54.0 174.5Q54.0 177.1 52.9 178.9Q51.7 180.8 49.6 181.8Q47.5 182.8 44.5 182.8L44.5 182.8L37.5 182.8L37.5 178.4L43.6 178.4Q45.2 178.4 46.2 177.9Q47.3 177.5 47.8 176.6Q48.3 175.7 48.3 174.5L48.3 174.5Q48.3 173.1 47.8 172.3Q47.3 171.4 46.2 170.9Q45.1 170.4 43.5 170.4L43.5 170.4L39.8 170.4L39.8 192.1ZM42.4 180.2L48.4 180.2L54.9 192.1L48.8 192.1L42.4 180.2ZM65.5 192.5L65.5 192.5Q62.5 192.5 60.3 191.2Q58.1 190.0 56.9 187.7Q55.8 185.5 55.8 182.4L55.8 182.4Q55.8 179.3 56.9 177.0Q58.1 174.7 60.3 173.5Q62.4 172.2 65.3 172.2L65.3 172.2Q67.2 172.2 68.9 172.8Q70.6 173.4 71.9 174.7Q73.1 175.9 73.8 177.8Q74.5 179.7 74.5 182.2L74.5 182.2L74.5 183.7L57.9 183.7L57.9 180.3L69.4 180.3Q69.4 179.1 68.9 178.2Q68.4 177.3 67.5 176.8Q66.6 176.3 65.4 176.3L65.4 176.3Q64.1 176.3 63.2 176.8Q62.2 177.4 61.7 178.3Q61.2 179.3 61.2 180.5L61.2 180.5L61.2 183.7Q61.2 185.1 61.7 186.2Q62.2 187.3 63.2 187.8Q64.2 188.4 65.6 188.4L65.6 188.4Q66.5 188.4 67.3 188.1Q68.0 187.9 68.6 187.4Q69.1 186.9 69.4 186.1L69.4 186.1L74.4 186.5Q74.0 188.3 72.8 189.6Q71.7 191.0 69.8 191.7Q67.9 192.5 65.5 192.5ZM82.8 192.5L82.8 192.5Q80.9 192.5 79.4 191.8Q78.0 191.1 77.1 189.8Q76.3 188.5 76.3 186.6L76.3 186.6Q76.3 185.0 76.9 183.8Q77.5 182.7 78.5 182.1Q79.5 181.4 80.9 181.0Q82.2 180.7 83.6 180.6L83.6 180.6Q85.4 180.4 86.4 180.2Q87.4 180.1 87.9 179.7Q88.4 179.4 88.4 178.8L88.4 178.8L88.4 178.7Q88.4 177.5 87.6 176.8Q86.9 176.2 85.5 176.2L85.5 176.2Q84.0 176.2 83.1 176.8Q82.3 177.5 82.0 178.4L82.0 178.4L77.0 178.0Q77.3 176.2 78.5 174.9Q79.6 173.6 81.4 172.9Q83.2 172.2 85.5 172.2L85.5 172.2Q87.1 172.2 88.6 172.6Q90.1 173.0 91.3 173.8Q92.5 174.6 93.2 175.8Q93.8 177.1 93.8 178.8L93.8 178.8L93.8 192.1L88.7 192.1L88.7 189.4L88.5 189.4Q88.0 190.3 87.3 191.0Q86.5 191.7 85.4 192.1Q84.2 192.5 82.8 192.5ZM84.3 188.7L84.3 188.7Q85.5 188.7 86.5 188.2Q87.4 187.7 87.9 186.9Q88.4 186.1 88.4 185.1L88.4 185.1L88.4 183.0Q88.2 183.1 87.7 183.3Q87.3 183.4 86.7 183.5Q86.2 183.6 85.6 183.7Q85.1 183.8 84.6 183.9L84.6 183.9Q83.7 184.0 83.0 184.3Q82.3 184.6 81.9 185.1Q81.5 185.7 81.5 186.4L81.5 186.4Q81.5 187.5 82.3 188.1Q83.1 188.7 84.3 188.7ZM104.4 192.4L104.4 192.4Q102.2 192.4 100.4 191.2Q98.6 190.1 97.5 187.8Q96.4 185.6 96.4 182.3L96.4 182.3Q96.4 178.9 97.5 176.7Q98.6 174.4 100.4 173.3Q102.2 172.2 104.4 172.2L104.4 172.2Q106.0 172.2 107.1 172.7Q108.3 173.3 108.9 174.1Q109.6 175.0 110.0 175.7L110.0 175.7L110.1 175.7L110.1 165.9L115.6 165.9L115.6 192.1L110.2 192.1L110.2 188.9L110.0 188.9Q109.6 189.8 108.9 190.6Q108.2 191.4 107.1 191.9Q106.0 192.4 104.4 192.4ZM106.1 188.1L106.1 188.1Q107.4 188.1 108.4 187.3Q109.3 186.6 109.8 185.3Q110.3 184.0 110.3 182.3L110.3 182.3Q110.3 180.5 109.8 179.2Q109.3 177.9 108.4 177.2Q107.4 176.5 106.1 176.5L106.1 176.5Q104.8 176.5 103.9 177.3Q102.9 178.0 102.5 179.3Q102.0 180.6 102.0 182.3L102.0 182.3Q102.0 184.0 102.5 185.3Q103.0 186.6 103.9 187.3Q104.8 188.1 106.1 188.1ZM122.5 199.4L122.5 199.4Q121.5 199.4 120.6 199.3Q119.7 199.1 119.1 198.9L119.1 198.9L120.3 194.8Q121.3 195.1 122.0 195.1Q122.8 195.2 123.4 194.8Q123.9 194.4 124.3 193.5L124.3 193.5L124.6 192.6L117.6 172.4L123.3 172.4L127.4 186.9L127.6 186.9L131.7 172.4L137.4 172.4L129.8 194.2Q129.3 195.8 128.3 197.0Q127.4 198.2 126.0 198.8Q124.5 199.4 122.5 199.4Z M145.7 172.4L157.6 172.4L157.6 176.5L145.7 176.5L145.7 172.4ZM148.4 186.8L148.4 167.7L153.9 167.7L153.9 186.0Q153.9 186.8 154.1 187.2Q154.3 187.6 154.7 187.8Q155.2 188.0 155.7 188.0L155.7 188.0Q156.1 188.0 156.5 187.9Q156.9 187.8 157.1 187.8L157.1 187.8L157.9 191.8Q157.5 192.0 156.8 192.1Q156.0 192.3 155.0 192.4L155.0 192.4Q153.0 192.4 151.5 191.8Q150.0 191.2 149.2 190.0Q148.4 188.7 148.4 186.8L148.4 186.8ZM168.9 192.5L168.9 192.5Q165.9 192.5 163.7 191.2Q161.6 189.9 160.4 187.6Q159.2 185.4 159.2 182.3L159.2 182.3Q159.2 179.3 160.4 177.0Q161.6 174.7 163.7 173.5Q165.9 172.2 168.9 172.2L168.9 172.2Q171.8 172.2 174.0 173.5Q176.2 174.7 177.4 177.0Q178.5 179.3 178.5 182.3L178.5 182.3Q178.5 185.4 177.4 187.6Q176.2 189.9 174.0 191.2Q171.8 192.5 168.9 192.5ZM168.9 188.2L168.9 188.2Q170.2 188.2 171.2 187.5Q172.1 186.7 172.5 185.4Q173.0 184.0 173.0 182.3L173.0 182.3Q173.0 180.6 172.5 179.2Q172.1 177.9 171.2 177.1Q170.2 176.3 168.9 176.3L168.9 176.3Q167.5 176.3 166.6 177.1Q165.7 177.9 165.2 179.2Q164.7 180.6 164.7 182.3L164.7 182.3Q164.7 184.0 165.2 185.4Q165.7 186.7 166.6 187.5Q167.5 188.2 168.9 188.2Z M194.3 192.1L188.9 192.1L188.9 165.9L194.4 165.9L194.4 175.7L194.6 175.7Q194.9 175.0 195.6 174.1Q196.3 173.3 197.4 172.7Q198.5 172.2 200.1 172.2L200.1 172.2Q202.3 172.2 204.1 173.3Q205.9 174.4 207.0 176.7Q208.1 178.9 208.1 182.3L208.1 182.3Q208.1 185.6 207.0 187.8Q206.0 190.1 204.2 191.2Q202.4 192.4 200.1 192.4L200.1 192.4Q198.5 192.4 197.4 191.9Q196.3 191.4 195.6 190.6Q194.9 189.8 194.6 188.9L194.6 188.9L194.3 188.9L194.3 192.1ZM194.3 182.3L194.3 182.3Q194.3 184.0 194.8 185.3Q195.2 186.6 196.2 187.3Q197.1 188.1 198.4 188.1L198.4 188.1Q199.7 188.1 200.7 187.3Q201.6 186.6 202.1 185.3Q202.5 184.0 202.5 182.3L202.5 182.3Q202.5 180.6 202.1 179.3Q201.6 178.0 200.7 177.3Q199.7 176.5 198.4 176.5L198.4 176.5Q197.1 176.5 196.2 177.2Q195.2 177.9 194.8 179.2Q194.3 180.5 194.3 182.3ZM219.8 192.5L219.8 192.5Q216.7 192.5 214.6 191.2Q212.4 190.0 211.2 187.7Q210.0 185.5 210.0 182.4L210.0 182.4Q210.0 179.3 211.2 177.0Q212.4 174.7 214.5 173.5Q216.7 172.2 219.5 172.2L219.5 172.2Q221.5 172.2 223.2 172.8Q224.8 173.4 226.1 174.7Q227.4 175.9 228.1 177.8Q228.8 179.7 228.8 182.2L228.8 182.2L228.8 183.7L212.2 183.7L212.2 180.3L223.6 180.3Q223.6 179.1 223.1 178.2Q222.6 177.3 221.7 176.8Q220.8 176.3 219.6 176.3L219.6 176.3Q218.4 176.3 217.4 176.8Q216.5 177.4 216.0 178.3Q215.4 179.3 215.4 180.5L215.4 180.5L215.4 183.7Q215.4 185.1 215.9 186.2Q216.5 187.3 217.5 187.8Q218.5 188.4 219.8 188.4L219.8 188.4Q220.8 188.4 221.5 188.1Q222.3 187.9 222.8 187.4Q223.3 186.9 223.6 186.1L223.6 186.1L228.7 186.5Q228.3 188.3 227.1 189.6Q225.9 191.0 224.0 191.7Q222.2 192.5 219.8 192.5Z M255.2 178.0L255.2 178.0L250.2 178.4Q250.1 177.7 249.7 177.2Q249.3 176.7 248.6 176.4Q247.9 176.1 246.9 176.1L246.9 176.1Q245.7 176.1 244.8 176.6Q243.9 177.1 243.9 178.0L243.9 178.0Q243.9 178.7 244.5 179.2Q245.1 179.7 246.4 180.0L246.4 180.0L250.0 180.7Q252.8 181.3 254.3 182.6Q255.7 183.9 255.7 186.0L255.7 186.0Q255.7 187.9 254.5 189.4Q253.4 190.8 251.4 191.7Q249.5 192.5 246.9 192.5L246.9 192.5Q243.0 192.5 240.7 190.8Q238.4 189.2 238.0 186.4L238.0 186.4L243.4 186.1Q243.6 187.3 244.5 187.9Q245.5 188.5 246.9 188.5L246.9 188.5Q248.4 188.5 249.2 188.0Q250.1 187.4 250.1 186.5L250.1 186.5Q250.1 185.8 249.5 185.3Q248.9 184.8 247.6 184.6L247.6 184.6L244.2 183.9Q241.3 183.3 239.9 181.9Q238.5 180.5 238.5 178.3L238.5 178.3Q238.5 176.4 239.6 175.0Q240.6 173.7 242.5 172.9Q244.3 172.2 246.9 172.2L246.9 172.2Q250.6 172.2 252.7 173.8Q254.9 175.3 255.2 178.0ZM263.8 192.5L263.8 192.5Q261.9 192.5 260.4 191.8Q259.0 191.1 258.1 189.8Q257.3 188.5 257.3 186.6L257.3 186.6Q257.3 185.0 257.9 183.8Q258.5 182.7 259.5 182.1Q260.6 181.4 261.9 181.0Q263.2 180.7 264.7 180.6L264.7 180.6Q266.4 180.4 267.4 180.2Q268.5 180.1 268.9 179.7Q269.4 179.4 269.4 178.8L269.4 178.8L269.4 178.7Q269.4 177.5 268.7 176.8Q267.9 176.2 266.5 176.2L266.5 176.2Q265.0 176.2 264.2 176.8Q263.3 177.5 263.0 178.4L263.0 178.4L258.0 178.0Q258.4 176.2 259.5 174.9Q260.6 173.6 262.4 172.9Q264.2 172.2 266.5 172.2L266.5 172.2Q268.2 172.2 269.7 172.6Q271.2 173.0 272.3 173.8Q273.5 174.6 274.2 175.8Q274.9 177.1 274.9 178.8L274.9 178.8L274.9 192.1L269.7 192.1L269.7 189.4L269.5 189.4Q269.1 190.3 268.3 191.0Q267.5 191.7 266.4 192.1Q265.3 192.5 263.8 192.5ZM265.4 188.7L265.4 188.7Q266.6 188.7 267.5 188.2Q268.4 187.7 268.9 186.9Q269.4 186.1 269.4 185.1L269.4 185.1L269.4 183.0Q269.2 183.1 268.8 183.3Q268.3 183.4 267.8 183.5Q267.2 183.6 266.7 183.7Q266.1 183.8 265.7 183.9L265.7 183.9Q264.7 184.0 264.0 184.3Q263.3 184.6 262.9 185.1Q262.5 185.7 262.5 186.4L262.5 186.4Q262.5 187.5 263.3 188.1Q264.1 188.7 265.4 188.7ZM276.6 172.4L288.7 172.4L288.7 176.5L276.6 176.5L276.6 172.4ZM284.8 192.1L279.4 192.1L279.4 171.0Q279.4 168.9 280.2 167.5Q281.1 166.1 282.5 165.4Q284.0 164.7 285.8 164.7L285.8 164.7Q287.1 164.7 288.1 164.9Q289.2 165.1 289.7 165.2L289.7 165.2L288.7 169.3Q288.4 169.2 287.9 169.1Q287.5 169.0 287.0 169.0L287.0 169.0Q285.8 169.0 285.3 169.6Q284.8 170.1 284.8 171.1L284.8 171.1L284.8 192.1ZM299.4 192.5L299.4 192.5Q296.4 192.5 294.2 191.2Q292.0 190.0 290.9 187.7Q289.7 185.5 289.7 182.4L289.7 182.4Q289.7 179.3 290.9 177.0Q292.0 174.7 294.2 173.5Q296.3 172.2 299.2 172.2L299.2 172.2Q301.2 172.2 302.8 172.8Q304.5 173.4 305.8 174.7Q307.0 175.9 307.7 177.8Q308.4 179.7 308.4 182.2L308.4 182.2L308.4 183.7L291.9 183.7L291.9 180.3L303.3 180.3Q303.3 179.1 302.8 178.2Q302.3 177.3 301.4 176.8Q300.5 176.3 299.3 176.3L299.3 176.3Q298.1 176.3 297.1 176.8Q296.2 177.4 295.6 178.3Q295.1 179.3 295.1 180.5L295.1 180.5L295.1 183.7Q295.1 185.1 295.6 186.2Q296.2 187.3 297.2 187.8Q298.2 188.4 299.5 188.4L299.5 188.4Q300.4 188.4 301.2 188.1Q301.9 187.9 302.5 187.4Q303.0 186.9 303.3 186.1L303.3 186.1L308.3 186.5Q307.9 188.3 306.8 189.6Q305.6 191.0 303.7 191.7Q301.9 192.5 299.4 192.5ZM320.6 184.2L315.8 184.2L315.8 183.8Q315.8 181.6 316.2 180.2Q316.6 178.9 317.3 178.1Q318.1 177.3 319.1 176.6L319.1 176.6Q319.9 176.1 320.6 175.5Q321.2 175.0 321.6 174.3Q321.9 173.6 321.9 172.8L321.9 172.8Q321.9 171.9 321.5 171.3Q321.1 170.6 320.4 170.2Q319.7 169.9 318.8 169.9L318.8 169.9Q318.0 169.9 317.2 170.3Q316.5 170.6 316.0 171.3Q315.5 172.0 315.5 173.1L315.5 173.1L310.3 173.1Q310.4 170.5 311.5 168.9Q312.7 167.2 314.6 166.4Q316.5 165.5 318.8 165.5L318.8 165.5Q321.4 165.5 323.3 166.4Q325.3 167.2 326.4 168.8Q327.5 170.4 327.5 172.6L327.5 172.6Q327.5 174.1 327.0 175.3Q326.5 176.4 325.6 177.3Q324.8 178.2 323.6 178.9L323.6 178.9Q322.6 179.5 321.9 180.2Q321.3 180.8 320.9 181.7Q320.6 182.5 320.6 183.8L320.6 183.8L320.6 184.2ZM318.3 192.4L318.3 192.4Q317.0 192.4 316.1 191.5Q315.2 190.6 315.2 189.3L315.2 189.3Q315.2 188.1 316.1 187.2Q317.0 186.3 318.3 186.3L318.3 186.3Q319.5 186.3 320.4 187.2Q321.4 188.1 321.4 189.3L321.4 189.3Q321.4 190.2 320.9 190.9Q320.5 191.6 319.8 192.0Q319.1 192.4 318.3 192.4Z "/><mask id="satori_om-id-0-0-0-1"><rect x="32" y="200" width="676" height="40" fill="#fff"/></mask><path fill="#00AA00" d="M52.0 232.1L34.3 232.1L34.3 205.9L51.9 205.9L51.9 210.5L39.8 210.5L39.8 216.7L51.0 216.7L51.0 221.3L39.8 221.3L39.8 227.5L52.0 227.5L52.0 232.1ZM60.8 220.7L60.8 220.7L60.8 232.1L55.3 232.1L55.3 212.4L60.5 212.4L60.5 215.9L60.7 215.9Q61.4 214.2 62.9 213.2Q64.5 212.2 66.7 212.2L66.7 212.2Q68.7 212.2 70.2 213.1Q71.7 214.0 72.6 215.6Q73.4 217.3 73.4 219.6L73.4 219.6L73.4 232.1L68.0 232.1L68.0 220.6Q68.0 218.7 67.1 217.7Q66.1 216.7 64.5 216.7L64.5 216.7Q63.4 216.7 62.6 217.2Q61.7 217.7 61.3 218.6Q60.8 219.5 60.8 220.7ZM85.7 232.5L85.7 232.5Q82.7 232.5 80.5 231.2Q78.3 229.9 77.2 227.6Q76.0 225.3 76.0 222.3L76.0 222.3Q76.0 219.3 77.2 217.0Q78.4 214.8 80.5 213.5Q82.7 212.2 85.7 212.2L85.7 212.2Q88.2 212.2 90.2 213.1Q92.1 214.1 93.2 215.7Q94.3 217.4 94.5 219.7L94.5 219.7L89.3 219.7Q89.1 218.2 88.2 217.3Q87.2 216.4 85.7 216.4L85.7 216.4Q84.5 216.4 83.5 217.1Q82.6 217.8 82.1 219.1Q81.6 220.4 81.6 222.3L81.6 222.3Q81.6 224.1 82.1 225.5Q82.6 226.8 83.5 227.5Q84.5 228.2 85.7 228.2L85.7 228.2Q86.7 228.2 87.4 227.8Q88.2 227.4 88.7 226.7Q89.2 225.9 89.3 224.9L89.3 224.9L94.5 224.9Q94.3 227.1 93.2 228.8Q92.1 230.5 90.2 231.5Q88.3 232.5 85.7 232.5ZM102.5 232.1L97.1 232.1L97.1 212.4L102.3 212.4L102.3 215.9L102.5 215.9Q103.1 214.0 104.3 213.1Q105.6 212.2 107.3 212.2L107.3 212.2Q107.7 212.2 108.1 212.2Q108.6 212.3 109.0 212.4L109.0 212.4L109.0 217.2Q108.6 217.1 107.9 217.0Q107.2 216.9 106.7 216.9L106.7 216.9Q105.5 216.9 104.5 217.4Q103.6 217.9 103.0 218.9Q102.5 219.8 102.5 221.0L102.5 221.0L102.5 232.1ZM114.8 239.4L114.8 239.4Q113.8 239.4 112.9 239.3Q112.0 239.1 111.4 238.9L111.4 238.9L112.6 234.8Q113.6 235.1 114.4 235.1Q115.2 235.2 115.7 234.8Q116.3 234.4 116.6 233.5L116.6 233.5L117.0 232.6L109.9 212.4L115.7 212.4L119.7 226.9L119.9 226.9L124.0 212.4L129.8 212.4L122.2 234.2Q121.6 235.8 120.7 237.0Q119.7 238.2 118.3 238.8Q116.9 239.4 114.8 239.4ZM137.1 239.4L131.7 239.4L131.7 212.4L137.0 212.4L137.0 215.7L137.3 215.7Q137.6 215.0 138.3 214.1Q139.0 213.3 140.1 212.7Q141.2 212.2 142.9 212.2L142.9 212.2Q145.0 212.2 146.8 213.3Q148.7 214.4 149.7 216.7Q150.8 218.9 150.8 222.3L150.8 222.3Q150.8 225.6 149.8 227.8Q148.7 230.1 146.9 231.2Q145.1 232.4 142.9 232.4L142.9 232.4Q141.3 232.4 140.2 231.9Q139.1 231.4 138.4 230.6Q137.7 229.8 137.3 228.9L137.3 228.9L137.1 228.9L137.1 239.4ZM137.0 222.3L137.0 222.3Q137.0 224.0 137.5 225.3Q138.0 226.6 138.9 227.3Q139.8 228.1 141.1 228.1L141.1 228.1Q142.5 228.1 143.4 227.3Q144.3 226.6 144.8 225.3Q145.3 224.0 145.3 222.3L145.3 222.3Q145.3 220.6 144.8 219.3Q144.3 218.0 143.4 217.3Q142.5 216.5 141.1 216.5L141.1 216.5Q139.8 216.5 138.9 217.2Q138.0 217.9 137.5 219.2Q137.0 220.5 137.0 222.3ZM152.2 212.4L164.0 212.4L164.0 216.5L152.2 216.5L152.2 212.4ZM154.8 226.8L154.8 207.7L160.3 207.7L160.3 226.0Q160.3 226.8 160.5 227.2Q160.8 227.6 161.2 227.8Q161.6 228.0 162.1 228.0L162.1 228.0Q162.5 228.0 162.9 227.9Q163.3 227.8 163.5 227.8L163.5 227.8L164.3 231.8Q163.9 232.0 163.2 232.1Q162.5 232.3 161.4 232.4L161.4 232.4Q159.4 232.4 158.0 231.8Q156.5 231.2 155.7 230.0Q154.8 228.7 154.8 226.8L154.8 226.8Z M176.8 239.4L176.8 239.4Q175.8 239.4 174.9 239.3Q174.0 239.1 173.4 238.9L173.4 238.9L174.6 234.8Q175.6 235.1 176.4 235.1Q177.1 235.2 177.7 234.8Q178.3 234.4 178.6 233.5L178.6 233.5L179.0 232.6L171.9 212.4L177.6 212.4L181.7 226.9L181.9 226.9L186.0 212.4L191.8 212.4L184.1 234.2Q183.6 235.8 182.7 237.0Q181.7 238.2 180.3 238.8Q178.8 239.4 176.8 239.4ZM201.9 232.5L201.9 232.5Q198.9 232.5 196.7 231.2Q194.6 229.9 193.4 227.6Q192.2 225.4 192.2 222.3L192.2 222.3Q192.2 219.3 193.4 217.0Q194.6 214.7 196.7 213.5Q198.9 212.2 201.9 212.2L201.9 212.2Q204.9 212.2 207.0 213.5Q209.2 214.7 210.4 217.0Q211.5 219.3 211.5 222.3L211.5 222.3Q211.5 225.4 210.4 227.6Q209.2 229.9 207.0 231.2Q204.9 232.5 201.9 232.5ZM201.9 228.2L201.9 228.2Q203.3 228.2 204.2 227.5Q205.1 226.7 205.5 225.4Q206.0 224.0 206.0 222.3L206.0 222.3Q206.0 220.6 205.5 219.2Q205.1 217.9 204.2 217.1Q203.3 216.3 201.9 216.3L201.9 216.3Q200.5 216.3 199.6 217.1Q198.7 217.9 198.2 219.2Q197.8 220.6 197.8 222.3L197.8 222.3Q197.8 224.0 198.2 225.4Q198.7 226.7 199.6 227.5Q200.5 228.2 201.9 228.2ZM226.8 223.7L226.8 223.7L226.8 212.4L232.2 212.4L232.2 232.1L227.0 232.1L227.0 228.5L226.8 228.5Q226.1 230.2 224.6 231.3Q223.1 232.3 220.8 232.3L220.8 232.3Q218.9 232.3 217.4 231.4Q215.9 230.5 215.0 228.9Q214.2 227.3 214.2 224.9L214.2 224.9L214.2 212.4L219.6 212.4L219.6 224.0Q219.7 225.7 220.6 226.7Q221.5 227.7 223.0 227.7L223.0 227.7Q224.0 227.7 224.9 227.3Q225.7 226.8 226.3 225.9Q226.8 225.0 226.8 223.7ZM241.1 232.1L235.7 232.1L235.7 212.4L241.0 212.4L241.0 215.9L241.2 215.9Q241.7 214.0 243.0 213.1Q244.2 212.2 245.9 212.2L245.9 212.2Q246.3 212.2 246.8 212.2Q247.2 212.3 247.6 212.4L247.6 212.4L247.6 217.2Q247.2 217.1 246.5 217.0Q245.9 216.9 245.3 216.9L245.3 216.9Q244.1 216.9 243.2 217.4Q242.2 217.9 241.7 218.9Q241.1 219.8 241.1 221.0L241.1 221.0L241.1 232.1Z M263.0 232.1L257.6 232.1L257.6 212.4L262.8 212.4L262.8 215.9L263.0 215.9Q263.6 214.2 265.1 213.2Q266.5 212.2 268.5 212.2L268.5 212.2Q270.5 212.2 271.9 213.2Q273.3 214.2 273.8 215.9L273.8 215.9L274.0 215.9Q274.6 214.2 276.2 213.2Q277.8 212.2 279.9 212.2L279.9 212.2Q282.7 212.2 284.4 213.9Q286.1 215.7 286.1 218.9L286.1 218.9L286.1 232.1L280.7 232.1L280.7 220.0Q280.7 218.3 279.8 217.5Q279.0 216.7 277.7 216.7L277.7 216.7Q276.2 216.7 275.3 217.6Q274.5 218.6 274.5 220.1L274.5 220.1L274.5 232.1L269.2 232.1L269.2 219.8Q269.2 218.4 268.4 217.5Q267.6 216.7 266.2 216.7L266.2 216.7Q265.3 216.7 264.6 217.1Q263.9 217.6 263.5 218.4Q263.0 219.2 263.0 220.3L263.0 220.3L263.0 232.1ZM298.5 232.5L298.5 232.5Q295.4 232.5 293.3 231.2Q291.1 230.0 289.9 227.7Q288.7 225.5 288.7 222.4L288.7 222.4Q288.7 219.3 289.9 217.0Q291.1 214.7 293.2 213.5Q295.4 212.2 298.3 212.2L298.3 212.2Q300.2 212.2 301.9 212.8Q303.6 213.4 304.8 214.7Q306.1 215.9 306.8 217.8Q307.5 219.7 307.5 222.2L307.5 222.2L307.5 223.7L290.9 223.7L290.9 220.3L302.4 220.3Q302.4 219.1 301.9 218.2Q301.3 217.3 300.4 216.8Q299.5 216.3 298.3 216.3L298.3 216.3Q297.1 216.3 296.2 216.8Q295.2 217.4 294.7 218.3Q294.1 219.3 294.1 220.5L294.1 220.5L294.1 223.7Q294.1 225.1 294.7 226.2Q295.2 227.3 296.2 227.8Q297.2 228.4 298.6 228.4L298.6 228.4Q299.5 228.4 300.2 228.1Q301.0 227.9 301.5 227.4Q302.1 226.9 302.3 226.1L302.3 226.1L307.4 226.5Q307.0 228.3 305.8 229.6Q304.6 231.0 302.8 231.7Q300.9 232.5 298.5 232.5ZM326.5 218.0L326.5 218.0L321.5 218.4Q321.4 217.7 320.9 217.2Q320.5 216.7 319.8 216.4Q319.2 216.1 318.2 216.1L318.2 216.1Q316.9 216.1 316.1 216.6Q315.2 217.1 315.2 218.0L315.2 218.0Q315.2 218.7 315.8 219.2Q316.3 219.7 317.7 220.0L317.7 220.0L321.3 220.7Q324.1 221.3 325.5 222.6Q326.9 223.9 326.9 226.0L326.9 226.0Q326.9 227.9 325.8 229.4Q324.7 230.8 322.7 231.7Q320.7 232.5 318.2 232.5L318.2 232.5Q314.3 232.5 312.0 230.8Q309.7 229.2 309.3 226.4L309.3 226.4L314.6 226.1Q314.9 227.3 315.8 227.9Q316.7 228.5 318.2 228.5L318.2 228.5Q319.6 228.5 320.5 228.0Q321.4 227.4 321.4 226.5L321.4 226.5Q321.4 225.8 320.8 225.3Q320.2 224.8 318.9 224.6L318.9 224.6L315.5 223.9Q312.6 223.3 311.2 221.9Q309.8 220.5 309.8 218.3L309.8 218.3Q309.8 216.4 310.8 215.0Q311.9 213.7 313.7 212.9Q315.6 212.2 318.1 212.2L318.1 212.2Q321.8 212.2 324.0 213.8Q326.1 215.3 326.5 218.0ZM345.8 218.0L345.8 218.0L340.8 218.4Q340.7 217.7 340.3 217.2Q339.8 216.7 339.2 216.4Q338.5 216.1 337.5 216.1L337.5 216.1Q336.3 216.1 335.4 216.6Q334.5 217.1 334.5 218.0L334.5 218.0Q334.5 218.7 335.1 219.2Q335.7 219.7 337.0 220.0L337.0 220.0L340.6 220.7Q343.4 221.3 344.8 222.6Q346.3 223.9 346.3 226.0L346.3 226.0Q346.3 227.9 345.1 229.4Q344.0 230.8 342.0 231.7Q340.1 232.5 337.5 232.5L337.5 232.5Q333.6 232.5 331.3 230.8Q329.0 229.2 328.6 226.4L328.6 226.4L334.0 226.1Q334.2 227.3 335.1 227.9Q336.1 228.5 337.5 228.5L337.5 228.5Q339.0 228.5 339.8 228.0Q340.7 227.4 340.7 226.5L340.7 226.5Q340.7 225.8 340.1 225.3Q339.5 224.8 338.2 224.6L338.2 224.6L334.8 223.9Q331.9 223.3 330.5 221.9Q329.1 220.5 329.1 218.3L329.1 218.3Q329.1 216.4 330.2 215.0Q331.2 213.7 333.1 212.9Q334.9 212.2 337.4 212.2L337.4 212.2Q341.2 212.2 343.3 213.8Q345.4 215.3 345.8 218.0ZM354.4 232.5L354.4 232.5Q352.5 232.5 351.0 231.8Q349.6 231.1 348.7 229.8Q347.9 228.5 347.9 226.6L347.9 226.6Q347.9 225.0 348.5 223.8Q349.1 222.7 350.1 222.1Q351.1 221.4 352.5 221.0Q353.8 220.7 355.2 220.6L355.2 220.6Q357.0 220.4 358.0 220.2Q359.1 220.1 359.5 219.7Q360.0 219.4 360.0 218.8L360.0 218.8L360.0 218.7Q360.0 217.5 359.2 216.8Q358.5 216.2 357.1 216.2L357.1 216.2Q355.6 216.2 354.7 216.8Q353.9 217.5 353.6 218.4L353.6 218.4L348.6 218.0Q348.9 216.2 350.1 214.9Q351.2 213.6 353.0 212.9Q354.8 212.2 357.1 212.2L357.1 212.2Q358.8 212.2 360.3 212.6Q361.8 213.0 362.9 213.8Q364.1 214.6 364.8 215.8Q365.5 217.1 365.5 218.8L365.5 218.8L365.5 232.1L360.3 232.1L360.3 229.4L360.1 229.4Q359.7 230.3 358.9 231.0Q358.1 231.7 357.0 232.1Q355.8 232.5 354.4 232.5ZM356.0 228.7L356.0 228.7Q357.2 228.7 358.1 228.2Q359.0 227.7 359.5 226.9Q360.0 226.1 360.0 225.1L360.0 225.1L360.0 223.0Q359.8 223.1 359.3 223.3Q358.9 223.4 358.4 223.5Q357.8 223.6 357.3 223.7Q356.7 223.8 356.3 223.9L356.3 223.9Q355.3 224.0 354.6 224.3Q353.9 224.6 353.5 225.1Q353.1 225.7 353.1 226.4L353.1 226.4Q353.1 227.5 353.9 228.1Q354.7 228.7 356.0 228.7ZM377.6 239.9L377.6 239.9Q375.0 239.9 373.1 239.1Q371.2 238.4 370.1 237.2Q369.0 235.9 368.7 234.4L368.7 234.4L373.7 233.7Q373.9 234.3 374.4 234.8Q374.9 235.3 375.7 235.6Q376.6 235.9 377.8 235.9L377.8 235.9Q379.5 235.9 380.7 235.1Q381.8 234.2 381.8 232.2L381.8 232.2L381.8 228.6L381.6 228.6Q381.3 229.4 380.5 230.2Q379.8 230.9 378.7 231.3Q377.6 231.8 376.0 231.8L376.0 231.8Q373.8 231.8 372.0 230.8Q370.2 229.7 369.1 227.6Q368.1 225.5 368.1 222.2L368.1 222.2Q368.1 218.9 369.1 216.7Q370.2 214.4 372.0 213.3Q373.8 212.2 376.0 212.2L376.0 212.2Q377.7 212.2 378.8 212.7Q379.9 213.3 380.6 214.1Q381.2 215.0 381.6 215.7L381.6 215.7L381.8 215.7L381.8 212.4L387.2 212.4L387.2 232.3Q387.2 234.8 386.0 236.5Q384.8 238.2 382.6 239.0Q380.4 239.9 377.6 239.9ZM377.7 227.7L377.7 227.7Q379.1 227.7 380.0 227.1Q380.9 226.4 381.4 225.2Q381.9 223.9 381.9 222.2L381.9 222.2Q381.9 220.5 381.4 219.2Q380.9 217.9 380.0 217.2Q379.1 216.5 377.7 216.5L377.7 216.5Q376.4 216.5 375.5 217.2Q374.6 218.0 374.1 219.2Q373.6 220.5 373.6 222.2L373.6 222.2Q373.6 223.9 374.1 225.1Q374.6 226.4 375.5 227.0Q376.4 227.7 377.7 227.7ZM399.6 232.5L399.6 232.5Q396.6 232.5 394.4 231.2Q392.2 230.0 391.1 227.7Q389.9 225.5 389.9 222.4L389.9 222.4Q389.9 219.3 391.1 217.0Q392.2 214.7 394.4 213.5Q396.5 212.2 399.4 212.2L399.4 212.2Q401.4 212.2 403.0 212.8Q404.7 213.4 406.0 214.7Q407.2 215.9 407.9 217.8Q408.6 219.7 408.6 222.2L408.6 222.2L408.6 223.7L392.1 223.7L392.1 220.3L403.5 220.3Q403.5 219.1 403.0 218.2Q402.5 217.3 401.6 216.8Q400.7 216.3 399.5 216.3L399.5 216.3Q398.3 216.3 397.3 216.8Q396.4 217.4 395.8 218.3Q395.3 219.3 395.3 220.5L395.3 220.5L395.3 223.7Q395.3 225.1 395.8 226.2Q396.4 227.3 397.3 227.8Q398.3 228.4 399.7 228.4L399.7 228.4Q400.6 228.4 401.4 228.1Q402.1 227.9 402.7 227.4Q403.2 226.9 403.5 226.1L403.5 226.1L408.5 226.5Q408.1 228.3 407.0 229.6Q405.8 231.0 403.9 231.7Q402.1 232.5 399.6 232.5ZM427.6 218.0L427.6 218.0L422.6 218.4Q422.5 217.7 422.1 217.2Q421.7 216.7 421.0 216.4Q420.3 216.1 419.4 216.1L419.4 216.1Q418.1 216.1 417.2 216.6Q416.4 217.1 416.4 218.0L416.4 218.0Q416.4 218.7 416.9 219.2Q417.5 219.7 418.8 220.0L418.8 220.0L422.4 220.7Q425.3 221.3 426.7 222.6Q428.1 223.9 428.1 226.0L428.1 226.0Q428.1 227.9 426.9 229.4Q425.8 230.8 423.9 231.7Q421.9 232.5 419.3 232.5L419.3 232.5Q415.4 232.5 413.1 230.8Q410.8 229.2 410.4 226.4L410.4 226.4L415.8 226.1Q416.0 227.3 417.0 227.9Q417.9 228.5 419.3 228.5L419.3 228.5Q420.8 228.5 421.7 228.0Q422.5 227.4 422.5 226.5L422.5 226.5Q422.5 225.8 421.9 225.3Q421.3 224.8 420.0 224.6L420.0 224.6L416.6 223.9Q413.7 223.3 412.3 221.9Q410.9 220.5 410.9 218.3L410.9 218.3Q410.9 216.4 412.0 215.0Q413.0 213.7 414.9 212.9Q416.8 212.2 419.3 212.2L419.3 212.2Q423.0 212.2 425.1 213.8Q427.3 215.3 427.6 218.0Z M447.7 232.1L441.9 232.1L436.6 212.4L442.1 212.4L445.1 225.6L445.3 225.6L448.5 212.4L453.9 212.4L457.1 225.6L457.3 225.6L460.3 212.4L465.8 212.4L460.4 232.1L454.7 232.1L451.3 219.7L451.1 219.7L447.7 232.1ZM473.2 232.1L467.8 232.1L467.8 212.4L473.2 212.4L473.2 232.1ZM470.5 209.9L470.5 209.9Q469.3 209.9 468.4 209.1Q467.6 208.3 467.6 207.2L467.6 207.2Q467.6 206.0 468.4 205.2Q469.3 204.4 470.5 204.4L470.5 204.4Q471.7 204.4 472.6 205.2Q473.4 206.0 473.4 207.2L473.4 207.2Q473.4 208.3 472.6 209.1Q471.7 209.9 470.5 209.9ZM475.3 212.4L487.1 212.4L487.1 216.5L475.3 216.5L475.3 212.4ZM478.0 226.8L478.0 207.7L483.4 207.7L483.4 226.0Q483.4 226.8 483.6 227.2Q483.9 227.6 484.3 227.8Q484.7 228.0 485.3 228.0L485.3 228.0Q485.6 228.0 486.0 227.9Q486.4 227.8 486.6 227.8L486.6 227.8L487.5 231.8Q487.1 232.0 486.3 232.1Q485.6 232.3 484.5 232.4L484.5 232.4Q482.5 232.4 481.1 231.8Q479.6 231.2 478.8 230.0Q478.0 228.7 478.0 226.8L478.0 226.8ZM495.6 220.7L495.6 220.7L495.6 232.1L490.2 232.1L490.2 205.9L495.4 205.9L495.4 215.9L495.7 215.9Q496.3 214.2 497.8 213.2Q499.3 212.2 501.5 212.2L501.5 212.2Q503.6 212.2 505.1 213.1Q506.6 214.0 507.5 215.6Q508.3 217.3 508.3 219.6L508.3 219.6L508.3 232.1L502.9 232.1L502.9 220.6Q502.9 218.7 502.0 217.7Q501.0 216.7 499.4 216.7L499.4 216.7Q498.3 216.7 497.4 217.2Q496.6 217.7 496.1 218.6Q495.6 219.5 495.6 220.7Z "/><clipPath id="satori_cp-id-0-0-0-1-1"><path x="518" y="200" width="180" height="40" d="M520,200 h176 a2,2 0 0 1 2,2 v36 a2,2 0 0 1 -2,2 h-176 a2,2 0 0 1 -2,-2 v-36 a2,2 0 0 1 2,-2"/></clipPath><mask id="satori_om-id-0-0-0-1-1"><rect x="518" y="200" width="180" height="40" fill="#fff"/></mask><mask id="satori_om-id-0-0-0-1-1-0"><rect x="518" y="200" width="87" height="40" fill="#fff" mask="url(#satori_om-id-0-0-0-1-1)"/></mask><rect x="518" y="200" width="87" height="40" fill="#00AA00" clip-path="url(#satori_cp-id-0-0-0-1-1)" mask="url(#satori_om-id-0-0-0-1-1)"/><path fill="#fff" d="M535.3 210.5L527.3 210.5L527.3 205.9L548.8 205.9L548.8 210.5L540.8 210.5L540.8 232.1L535.3 232.1L535.3 210.5ZM557.4 232.5L557.4 232.5Q554.4 232.5 552.2 231.2Q550.0 230.0 548.9 227.7Q547.7 225.5 547.7 222.4L547.7 222.4Q547.7 219.3 548.9 217.0Q550.0 214.7 552.2 213.5Q554.3 212.2 557.2 212.2L557.2 212.2Q559.1 212.2 560.8 212.8Q562.5 213.4 563.8 214.7Q565.0 215.9 565.7 217.8Q566.4 219.7 566.4 222.2L566.4 222.2L566.4 223.7L549.9 223.7L549.9 220.3L561.3 220.3Q561.3 219.1 560.8 218.2Q560.3 217.3 559.4 216.8Q558.5 216.3 557.3 216.3L557.3 216.3Q556.1 216.3 555.1 216.8Q554.1 217.4 553.6 218.3Q553.1 219.3 553.1 220.5L553.1 220.5L553.1 223.7Q553.1 225.1 553.6 226.2Q554.1 227.3 555.1 227.8Q556.1 228.4 557.5 228.4L557.5 228.4Q558.4 228.4 559.2 228.1Q559.9 227.9 560.5 227.4Q561.0 226.9 561.3 226.1L561.3 226.1L566.3 226.5Q565.9 228.3 564.7 229.6Q563.6 231.0 561.7 231.7Q559.8 232.5 557.4 232.5ZM567.7 212.4L573.3 212.4L576.9 219.3L580.6 212.4L586.2 212.4L580.5 222.3L586.3 232.1L580.8 232.1L576.9 225.3L573.1 232.1L567.5 232.1L573.3 222.3L567.7 212.4ZM587.1 212.4L599.0 212.4L599.0 216.5L587.1 216.5L587.1 212.4ZM589.8 226.8L589.8 207.7L595.3 207.7L595.3 226.0Q595.3 226.8 595.5 227.2Q595.7 227.6 596.1 227.8Q596.6 228.0 597.1 228.0L597.1 228.0Q597.5 228.0 597.9 227.9Q598.3 227.8 598.5 227.8L598.5 227.8L599.3 231.8Q598.9 232.0 598.2 232.1Q597.4 232.3 596.4 232.4L596.4 232.4Q594.4 232.4 592.9 231.8Q591.4 231.2 590.6 230.0Q589.8 228.7 589.8 226.8L589.8 226.8Z " clip-path="url(#satori_cp-id-0-0-0-1-1)" mask="url(#satori_om-id-0-0-0-1-1)"/><mask id="satori_om-id-0-0-0-1-1-1"><rect x="605" y="200" width="93" height="40" fill="#fff" mask="url(#satori_om-id-0-0-0-1-1)"/></mask><rect x="605" y="200" width="93" height="40" fill="#AAAAAA" clip-path="url(#satori_cp-id-0-0-0-1-1)" mask="url(#satori_om-id-0-0-0-1-1)"/><path fill="#fff" d="M614.6 232.1L609.2 232.1L609.2 212.4L614.6 212.4L614.6 232.1ZM611.9 209.9L611.9 209.9Q610.7 209.9 609.8 209.1Q609.0 208.3 609.0 207.2L609.0 207.2Q609.0 206.0 609.8 205.2Q610.7 204.4 611.9 204.4L611.9 204.4Q613.1 204.4 614.0 205.2Q614.8 206.0 614.8 207.2L614.8 207.2Q614.8 208.3 614.0 209.1Q613.1 209.9 611.9 209.9ZM626.9 239.9L626.9 239.9Q624.3 239.9 622.4 239.1Q620.5 238.4 619.4 237.2Q618.3 235.9 617.9 234.4L617.9 234.4L623.0 233.7Q623.2 234.3 623.7 234.8Q624.2 235.3 625.0 235.6Q625.9 235.9 627.0 235.9L627.0 235.9Q628.8 235.9 630.0 235.1Q631.1 234.2 631.1 232.2L631.1 232.2L631.1 228.6L630.9 228.6Q630.5 229.4 629.8 230.2Q629.1 230.9 628.0 231.3Q626.9 231.8 625.3 231.8L625.3 231.8Q623.1 231.8 621.3 230.8Q619.5 229.7 618.4 227.6Q617.3 225.5 617.3 222.2L617.3 222.2Q617.3 218.9 618.4 216.7Q619.5 214.4 621.3 213.3Q623.1 212.2 625.3 212.2L625.3 212.2Q626.9 212.2 628.1 212.7Q629.2 213.3 629.8 214.1Q630.5 215.0 630.9 215.7L630.9 215.7L631.1 215.7L631.1 212.4L636.5 212.4L636.5 232.3Q636.5 234.8 635.3 236.5Q634.1 238.2 631.9 239.0Q629.7 239.9 626.9 239.9ZM627.0 227.7L627.0 227.7Q628.3 227.7 629.3 227.1Q630.2 226.4 630.7 225.2Q631.2 223.9 631.2 222.2L631.2 222.2Q631.2 220.5 630.7 219.2Q630.2 217.9 629.3 217.2Q628.3 216.5 627.0 216.5L627.0 216.5Q625.7 216.5 624.8 217.2Q623.8 218.0 623.4 219.2Q622.9 220.5 622.9 222.2L622.9 222.2Q622.9 223.9 623.4 225.1Q623.9 226.4 624.8 227.0Q625.7 227.7 627.0 227.7ZM645.4 232.1L640.0 232.1L640.0 212.4L645.2 212.4L645.2 215.9L645.4 215.9Q646.0 214.2 647.4 213.2Q648.9 212.2 650.9 212.2L650.9 212.2Q652.9 212.2 654.3 213.2Q655.7 214.2 656.2 215.9L656.2 215.9L656.4 215.9Q657.0 214.2 658.6 213.2Q660.1 212.2 662.3 212.2L662.3 212.2Q665.1 212.2 666.8 213.9Q668.5 215.7 668.5 218.9L668.5 218.9L668.5 232.1L663.1 232.1L663.1 220.0Q663.1 218.3 662.2 217.5Q661.3 216.7 660.0 216.7L660.0 216.7Q658.5 216.7 657.7 217.6Q656.9 218.6 656.9 220.1L656.9 220.1L656.9 232.1L651.6 232.1L651.6 219.8Q651.6 218.4 650.8 217.5Q649.9 216.7 648.6 216.7L648.6 216.7Q647.7 216.7 647.0 217.1Q646.2 217.6 645.8 218.4Q645.4 219.2 645.4 220.3L645.4 220.3L645.4 232.1ZM677.5 232.5L677.5 232.5Q675.6 232.5 674.1 231.8Q672.7 231.1 671.8 229.8Q671.0 228.5 671.0 226.6L671.0 226.6Q671.0 225.0 671.6 223.8Q672.2 222.7 673.2 222.1Q674.2 221.4 675.6 221.0Q676.9 220.7 678.3 220.6L678.3 220.6Q680.1 220.4 681.1 220.2Q682.2 220.1 682.6 219.7Q683.1 219.4 683.1 218.8L683.1 218.8L683.1 218.7Q683.1 217.5 682.3 216.8Q681.6 216.2 680.2 216.2L680.2 216.2Q678.7 216.2 677.8 216.8Q677.0 217.5 676.7 218.4L676.7 218.4L671.7 218.0Q672.0 216.2 673.2 214.9Q674.3 213.6 676.1 212.9Q677.9 212.2 680.2 212.2L680.2 212.2Q681.8 212.2 683.4 212.6Q684.9 213.0 686.0 213.8Q687.2 214.6 687.9 215.8Q688.5 217.1 688.5 218.8L688.5 218.8L688.5 232.1L683.4 232.1L683.4 229.4L683.2 229.4Q682.8 230.3 682.0 231.0Q681.2 231.7 680.1 232.1Q678.9 232.5 677.5 232.5ZM679.0 228.7L679.0 228.7Q680.3 228.7 681.2 228.2Q682.1 227.7 682.6 226.9Q683.1 226.1 683.1 225.1L683.1 225.1L683.1 223.0Q682.9 223.1 682.4 223.3Q682.0 223.4 681.5 223.5Q680.9 223.6 680.4 223.7Q679.8 223.8 679.4 223.9L679.4 223.9Q678.4 224.0 677.7 224.3Q677.0 224.6 676.6 225.1Q676.2 225.7 676.2 226.4L676.2 226.4Q676.2 227.5 677.0 228.1Q677.8 228.7 679.0 228.7Z " clip-path="url(#satori_cp-id-0-0-0-1-1)" mask="url(#satori_om-id-0-0-0-1-1)"/><path fill="#00AA00" d="M703.4 232.4L703.4 232.4Q702.1 232.4 701.2 231.5Q700.3 230.6 700.3 229.3L700.3 229.3Q700.3 228.1 701.2 227.2Q702.1 226.3 703.4 226.3L703.4 226.3Q704.6 226.3 705.5 227.2Q706.4 228.1 706.4 229.3L706.4 229.3Q706.4 230.2 706.0 230.9Q705.6 231.6 704.9 232.0Q704.2 232.4 703.4 232.4Z "/></svg>