<?xml version="1.0" standalone="no"?>
<!DOCTYPE svg PUBLIC "-//W3C//DTD SVG 20010904//EN"
 "http://www.w3.org/TR/2001/REC-SVG-20010904/DTD/svg10.dtd">
<svg version="1.0" xmlns="http://www.w3.org/2000/svg"
 width="188.000000pt" height="190.000000pt" viewBox="0 0 188.000000 190.000000"
 preserveAspectRatio="xMidYMid meet">

<g transform="translate(0.000000,190.000000) scale(0.100000,-0.100000)"
fill="#000000" stroke="none">
<path d="M0 950 l0 -950 940 0 940 0 0 950 0 950 -940 0 -940 0 0 -950z m1834
234 c24 -23 24 -425 0 -448 -14 -14 -109 -16 -901 -16 -811 0 -888 1 -905 17
-16 15 -18 35 -18 221 0 177 2 208 17 224 15 17 57 18 904 18 794 0 889 -2
903 -16z"/>
</g>
</svg>
